<svg fill="none" viewBox="0 0 49.367999999999995 54.13602015113351" xmlns="http://www.w3.org/2000/svg" style="max-height: 500px" width="49.367999999999995" height="54.13602015113351"><g clip-path="url(#clip0_435_159)"><path fill="url(#paint0_linear_435_159)" d="M47.2 31.4799L44.23 35.9399C45.8 41.7599 45.03 45.6799 42.05 48.1499C39.44 50.3099 35.19 50.3299 30.08 48.2199C24.54 45.9199 18.82 41.4399 13.98 35.6099C9.14004 29.7699 5.80004 23.3199 4.57004 17.4499C3.44004 12.0299 4.25004 7.85994 6.86004 5.69994C8.18004 4.60994 9.91004 4.05994 11.97 4.05994C14.03 4.05994 16.3 4.57994 18.83 5.62994C23.67 7.62994 28.63 11.2999 33.04 16.0799C32.86 16.5599 32.76 17.0699 32.76 17.6099C32.76 19.9899 34.69 21.9199 37.07 21.9199C39.45 21.9199 41.38 19.9899 41.38 17.6099C41.38 15.2299 39.45 13.2999 37.07 13.2999C36.74 13.2999 36.42 13.3399 36.11 13.4099C31.29 8.15994 25.79 4.10994 20.39 1.86994C13.81 -0.850062 8.08004 -0.600062 4.25004 2.56994C0.430044 5.73994 -0.879956 11.3299 0.580044 18.2899C1.94004 24.7999 5.59004 31.8799 10.84 38.2099C16.09 44.5499 22.37 49.4399 28.52 51.9899C31.55 53.2399 34.39 53.8699 36.95 53.8699C39.96 53.8699 42.58 53.0099 44.64 51.2999C49.37 47.3799 50.05 39.8799 47.2 31.4899V31.4799Z"/><path fill="url(#paint1_linear_435_159)" d="M6.85004 48.16C4.24004 46 3.43004 41.83 4.56004 36.41C5.79004 30.54 9.13004 24.09 13.97 18.25C14.52 17.58 14.9 17.11 15.2 16.73C15.55 16.82 15.92 16.88 16.3 16.88C18.68 16.88 20.61 14.95 20.61 12.57C20.61 10.19 18.68 8.26001 16.3 8.26001C13.92 8.26001 11.99 10.19 11.99 12.57C11.99 13.05 12.07 13.52 12.22 13.95C11.87 14.38 11.46 14.91 10.84 15.66C5.59004 21.99 1.94004 29.07 0.580044 35.58C-0.879956 42.55 0.430044 48.13 4.25004 51.3C6.32004 53.01 8.94004 53.87 11.94 53.87C14.5 53.87 17.35 53.25 20.37 51.99C20.67 51.87 20.97 51.73 21.27 51.6C19.78 50.76 18.5 49.77 17.49 48.73C12.97 50.32 9.22004 50.13 6.84004 48.16H6.85004Z"/><path fill="url(#paint2_linear_435_159)" d="M44.6503 2.56989C40.9503 -0.500111 35.4603 -0.820111 29.1603 1.62989C29.3403 1.71989 29.5103 1.80989 29.6903 1.90989C31.0403 2.68989 32.2103 3.60989 33.1803 4.58989C34.5203 4.23989 35.7903 4.05989 36.9503 4.05989C39.0103 4.05989 40.7403 4.60989 42.0603 5.69989C47.7403 10.4099 44.4703 24.0999 34.9403 35.6099C34.3303 36.3499 33.6903 37.0699 33.0503 37.7599C32.7503 37.6999 32.4503 37.6599 32.1303 37.6599C29.7503 37.6599 27.8203 39.5899 27.8203 41.9699C27.8203 42.1999 27.8403 42.4299 27.8803 42.6499C27.8603 42.6699 27.8403 42.6799 27.8203 42.6999C27.8503 42.7099 27.8703 42.7299 27.8903 42.7499C28.2603 44.7599 30.0103 46.2899 32.1303 46.2899C34.5103 46.2899 36.4403 44.3599 36.4403 41.9799C36.4403 41.4299 36.3303 40.8999 36.1403 40.4099C36.7903 39.6999 37.4403 38.9699 38.0703 38.2099C49.3903 24.5499 52.2903 8.88989 44.6603 2.56989H44.6503Z"/><path fill="white" d="M64.2798 25.5298C63.2298 25.5298 62.9498 24.3698 63.5998 23.6898L77.7898 9.25976H64.7898C64.3098 9.25976 63.9098 8.84976 63.9098 8.37976C63.9098 7.90976 64.3198 7.49976 64.7898 7.49976H79.5198C80.5698 7.49976 80.8498 8.65976 80.1998 9.33976L66.0098 23.7698H79.0098C79.4898 23.7698 79.8898 24.1798 79.8898 24.6498C79.8898 25.1198 79.4798 25.5298 79.0098 25.5298H64.2798Z"/><path fill="white" d="M83.709 1.5798C83.709 0.869795 84.289 0.289795 84.999 0.289795C85.709 0.289795 86.289 0.869795 86.289 1.5798C86.289 2.28979 85.709 2.86979 84.999 2.86979C84.289 2.86979 83.709 2.28979 83.709 1.5798ZM84.079 8.2198C84.079 7.7098 84.489 7.2998 84.999 7.2998C85.509 7.2998 85.919 7.7098 85.919 8.2198V24.8298C85.919 25.3398 85.509 25.7498 84.999 25.7498C84.489 25.7498 84.079 25.3398 84.079 24.8298V8.20979V8.2198Z"/><path fill="white" d="M90.1797 0.999834C90.1797 0.489834 90.5897 0.079834 91.0997 0.079834C91.6097 0.079834 92.0197 0.489834 92.0197 0.999834V24.8198C92.0197 25.3298 91.6097 25.7398 91.0997 25.7398C90.5897 25.7398 90.1797 25.3298 90.1797 24.8198V0.999834Z"/><path fill="white" d="M100.559 25.5298C97.4591 25.5298 95.2891 23.0098 95.2891 20.2598C95.2891 17.5098 97.4691 15.0198 100.559 15.0198H108.249C108.729 15.0198 109.129 15.4298 109.129 15.8998C109.129 16.3698 108.719 16.7798 108.249 16.7798H100.559C98.5191 16.7798 97.1191 18.4798 97.1191 20.2498C97.1191 22.0198 98.5191 23.7498 100.559 23.7498H111.349V13.8498C111.349 11.0598 109.609 9.25976 106.819 9.25976H97.9391C97.4591 9.25976 97.0591 8.84976 97.0591 8.37976C97.0591 7.90976 97.4691 7.49976 97.9391 7.49976H106.819C110.599 7.49976 113.179 10.0898 113.179 13.8598V24.5098C113.179 25.1198 112.769 25.5298 112.159 25.5298H100.559Z"/><path fill="white" d="M118.35 25.5298C117.77 25.5298 117.33 25.1198 117.33 24.5098V0.999834C117.33 0.489834 117.74 0.079834 118.25 0.079834C118.76 0.079834 119.17 0.489834 119.17 0.999834V7.49983H127.41C132.38 7.49983 135.85 11.1098 135.85 15.8998V17.1298C135.85 21.9298 132.38 25.5398 127.41 25.5398H118.36L118.35 25.5298ZM134 15.8998C134 12.1198 131.28 9.25983 127.36 9.25983H119.16V23.7598H127.36C131.27 23.7598 134 20.9398 134 17.1198V15.8898V15.8998Z"/><path fill="white" d="M63.1504 33.9199H66.0104C67.2004 33.9199 67.9904 34.7499 67.9904 35.8899C67.9904 36.6299 67.7104 37.0899 67.2804 37.3799C67.8304 37.6199 68.2604 38.1499 68.2604 39.1099C68.2604 40.4399 67.5004 41.2099 66.0704 41.2099H63.1504V33.9199ZM65.7604 37.0199C66.4904 37.0199 67.0504 36.7399 67.0504 35.8899C67.0504 35.1999 66.5904 34.7799 65.7604 34.7799H64.0604V37.0299H65.7604V37.0199ZM65.9404 40.3499C66.8004 40.3499 67.3204 39.9299 67.3204 39.0999C67.3204 38.2699 66.8204 37.8499 65.9404 37.8499H64.0704V40.3499H65.9404Z"/><path fill="white" d="M69.8711 33.9199H70.8111V40.3199H74.0911V41.1999H69.8711V33.9099V33.9199Z"/><path fill="white" d="M74.7598 38.1898V36.9398C74.7598 34.9498 75.7998 33.8298 77.6298 33.8298C79.4598 33.8298 80.4998 34.9498 80.4998 36.9398V38.1898C80.4998 40.1798 79.4598 41.2998 77.6298 41.2998C75.7998 41.2998 74.7598 40.1798 74.7598 38.1898ZM77.6298 40.4198C79.0398 40.4198 79.5698 39.5598 79.5698 38.1898V36.9398C79.5698 35.5798 79.0398 34.7098 77.6298 34.7098C76.2198 34.7098 75.6898 35.5698 75.6898 36.9398V38.1898C75.6898 39.5498 76.2198 40.4198 77.6298 40.4198Z"/><path fill="white" d="M81.75 38.1898V36.9398C81.75 34.9498 82.79 33.8298 84.62 33.8298C86.45 33.8298 87.33 34.8598 87.45 36.4498H86.5C86.39 35.4398 85.9 34.7098 84.62 34.7098C83.21 34.7098 82.68 35.5698 82.68 36.9398V38.1898C82.68 39.5498 83.21 40.4198 84.62 40.4198C85.87 40.4198 86.39 39.7298 86.48 38.7598H87.43C87.29 40.3098 86.34 41.2998 84.62 41.2998C82.79 41.2998 81.75 40.1798 81.75 38.1898Z"/><path fill="white" d="M90.0313 38.4399V41.2099H89.1113V33.9199H90.0313V36.5699L92.9913 33.9199H94.2413L90.2913 37.4699L94.3413 41.2099H93.0013L90.0313 38.4399Z"/><path fill="white" d="M94.7012 38.1898V36.9398C94.7012 34.9498 95.7412 33.8298 97.5712 33.8298C99.4012 33.8298 100.281 34.8598 100.401 36.4498H99.4512C99.3412 35.4398 98.8512 34.7098 97.5712 34.7098C96.1612 34.7098 95.6312 35.5698 95.6312 36.9398V38.1898C95.6312 39.5498 96.1612 40.4198 97.5712 40.4198C98.8212 40.4198 99.3412 39.7298 99.4312 38.7598H100.381C100.241 40.3098 99.2912 41.2998 97.5712 41.2998C95.7412 41.2998 94.7012 40.1798 94.7012 38.1898Z"/><path fill="white" d="M106.491 37.9099H103.001V41.2099H102.061V33.9199H103.001V37.0199H106.491V33.9199H107.431V41.2099H106.491V37.9099Z"/><path fill="white" d="M113.411 39.3299H110.351L109.791 41.2099H108.781L111.051 33.9199H112.741L114.991 41.2099H113.981L113.421 39.3299H113.411ZM113.161 38.4999L111.881 34.1899L110.601 38.4999H113.161Z"/><path fill="white" d="M116.02 40.3499H117.54V34.7899H116.02V33.9299H120V34.7899H118.48V40.3499H120V41.2099H116.02V40.3499Z"/><path fill="white" d="M121.77 33.9199H123.53L126.35 40.9999V33.9199H127.27V41.2099H125.45L122.69 34.1799V41.2099H121.77V33.9199Z"/><path fill="white" d="M63.1504 46.4099H65.4604C67.4004 46.4099 68.4404 47.6499 68.4404 49.6399V50.4699C68.4404 52.4599 67.4004 53.6999 65.4604 53.6999H63.1504V46.4099ZM67.5004 50.4699V49.6399C67.5004 48.2799 66.9704 47.2999 65.4604 47.2999H64.0604V52.8199H65.4604C66.9704 52.8199 67.5004 51.8399 67.5004 50.4799V50.4699Z"/><path fill="white" d="M70.0996 46.4099H74.5796V47.2599H71.0396V49.5099H74.2596V50.3599H71.0396V52.8399H74.5796V53.6899H70.0996V46.3999V46.4099Z"/><path fill="white" d="M75.5098 46.4099H76.5098L78.5298 53.4399L80.5498 46.4099H81.5498L79.4098 53.6999H77.6598L75.5198 46.4099H75.5098Z"/><path fill="white" d="M82.9004 46.4099H87.3804V47.2599H83.8404V49.5099H87.0604V50.3599H83.8404V52.8399H87.3804V53.6899H82.9004V46.3999V46.4099Z"/><path fill="white" d="M89.0312 46.4099H89.9713V52.8099H93.2513V53.6899H89.0312V46.3999V46.4099Z"/><path fill="white" d="M93.9199 50.6798V49.4298C93.9199 47.4398 94.9599 46.3198 96.7899 46.3198C98.6199 46.3198 99.6599 47.4398 99.6599 49.4298V50.6798C99.6599 52.6698 98.6199 53.7898 96.7899 53.7898C94.9599 53.7898 93.9199 52.6698 93.9199 50.6798ZM96.7899 52.9098C98.1999 52.9098 98.7299 52.0498 98.7299 50.6798V49.4298C98.7299 48.0698 98.1999 47.1998 96.7899 47.1998C95.3799 47.1998 94.8499 48.0598 94.8499 49.4298V50.6798C94.8499 52.0398 95.3799 52.9098 96.7899 52.9098Z"/><path fill="white" d="M101.33 46.4099H104C105.35 46.4099 106.21 47.1299 106.21 48.3699C106.21 49.7399 105.18 50.3799 103.9 50.3799H102.24V53.6999H101.32V46.4099H101.33ZM103.95 49.5199C104.73 49.5199 105.26 49.2499 105.26 48.3799C105.26 47.5099 104.73 47.2499 103.95 47.2499H102.24V49.5299H103.95V49.5199Z"/><path fill="white" d="M108.791 46.6699V53.6999H107.871V46.4099H109.611L111.501 53.4399L113.391 46.4099H115.131V53.6999H114.211V46.6699L112.381 53.6999H110.611L108.781 46.6699H108.791Z"/><path fill="white" d="M117.221 46.4099H121.701V47.2599H118.161V49.5099H121.381V50.3599H118.161V52.8399H121.701V53.6899H117.221V46.3999V46.4099Z"/><path fill="white" d="M123.361 46.4099H125.121L127.941 53.4899V46.4099H128.861V53.6999H127.041L124.281 46.6699V53.6999H123.361V46.4099Z"/><path fill="white" d="M132.4 47.2699H130.26V46.4099H135.48V47.2699H133.34V53.6899H132.4V47.2699Z"/></g><defs><linearGradient gradientUnits="userSpaceOnUse" y2="17.0899" x2="-2.60995" y1="36.7799" x1="51.51" id="paint0_linear_435_159"><stop stop-color="#0093E9"/><stop stop-color="#26A5DE" offset="0.27"/><stop stop-color="#66C3CD" offset="0.77"/><stop stop-color="#80D0C7" offset="1"/></linearGradient><linearGradient gradientUnits="userSpaceOnUse" y2="37.53" x2="-2.33996" y1="27.14" x1="26.21" id="paint1_linear_435_159"><stop stop-color="#0093E9"/><stop stop-color="#26A5DE" offset="0.27"/><stop stop-color="#66C3CD" offset="0.77"/><stop stop-color="#80D0C7" offset="1"/></linearGradient><linearGradient gradientUnits="userSpaceOnUse" y2="27.1899" x2="22.1403" y1="16.5699" x1="51.3203" id="paint2_linear_435_159"><stop stop-color="#0093E9"/><stop stop-color="#26A5DE" offset="0.27"/><stop stop-color="#66C3CD" offset="0.77"/><stop stop-color="#80D0C7" offset="1"/></linearGradient><clipPath id="clip0_435_159"><rect fill="white" height="53.87" width="135.84"/></clipPath></defs></svg>